<?xml version="1.0" standalone="no"?>
<!DOCTYPE svg PUBLIC "-//W3C//DTD SVG 20010904//EN"
 "http://www.w3.org/TR/2001/REC-SVG-20010904/DTD/svg10.dtd">
<svg version="1.0" xmlns="http://www.w3.org/2000/svg"
 width="903.000000pt" height="903.000000pt" viewBox="0 0 903.000000 903.000000"
 preserveAspectRatio="xMidYMid meet">
<metadata>
Created by potrace 1.14, written by Peter Selinger 2001-2017
</metadata>
<g transform="translate(0.000000,903.000000) scale(0.100000,-0.100000)"
fill="#000000" stroke="none">
<path d="M3475 7639 c-292 -27 -703 -112 -982 -204 -160 -53 -162 -53 -209
-39 -101 30 -241 13 -345 -42 -74 -39 -215 -182 -269 -272 l-43 -73 -181 -91
c-100 -50 -212 -108 -249 -130 -83 -48 -168 -78 -351 -123 -318 -79 -443 -82
-684 -16 -85 24 -155 41 -158 39 -2 -2 0 -65 5 -139 9 -148 19 -178 104 -304
84 -124 312 -326 513 -454 49 -31 86 -62 93 -78 27 -60 109 -172 181 -247 118
-123 234 -198 355 -227 37 -9 64 -25 105 -63 30 -28 66 -58 78 -66 23 -15 23
-18 12 -60 -15 -56 -7 -147 20 -207 58 -132 184 -297 284 -372 25 -19 28 -24
15 -35 -255 -233 -244 -224 -365 -281 -272 -128 -391 -244 -424 -413 -26 -128
21 -268 159 -480 64 -98 73 -119 91 -203 32 -150 41 -181 73 -242 35 -68 81
-111 152 -143 l51 -24 188 -427 c103 -236 202 -450 218 -476 17 -26 51 -64 77
-85 25 -20 50 -44 55 -52 25 -39 100 -108 151 -139 88 -54 170 -73 310 -73
242 0 507 88 750 250 171 114 283 244 333 386 22 63 24 83 20 178 l-4 107 54
47 c66 57 156 177 197 262 46 96 53 95 187 -40 181 -183 340 -275 594 -347
138 -38 141 -39 329 -40 213 -2 338 12 555 61 307 69 763 245 1047 402 263
146 472 233 818 340 251 77 413 122 637 176 193 46 300 83 406 140 209 113
308 204 480 444 67 94 120 171 119 173 -2 1 -75 16 -163 33 -180 35 -217 35
-439 0 -227 -36 -481 -31 -593 11 -22 9 -22 10 24 66 60 73 103 165 110 234 3
30 14 75 25 101 44 108 44 115 -13 678 l-52 525 37 48 c81 105 85 218 17 433
l-41 129 6 195 c5 156 4 211 -9 273 -37 186 -156 309 -343 353 -57 14 -107 15
-296 10 l-228 -5 -137 33 c-75 19 -180 39 -232 46 -52 6 -122 18 -155 25 -79
18 -231 13 -274 -9 -31 -17 -33 -16 -89 15 -146 82 -182 99 -253 123 -130 44
-252 58 -469 55 l-195 -2 -95 45 c-433 207 -788 285 -1335 293 -143 2 -305 -1
-360 -6z m505 -79 c283 -16 514 -52 713 -112 119 -36 382 -140 494 -197 79
-39 80 -39 149 -31 91 12 260 12 354 0 160 -21 271 -60 442 -158 l68 -38 -76
-78 c-42 -42 -84 -97 -95 -121 -22 -49 -35 -158 -25 -200 l7 -27 39 44 c34 38
38 47 33 80 -9 59 44 158 125 237 37 34 79 69 94 77 60 31 342 0 619 -67 l167
-40 113 10 c306 29 465 -2 566 -111 82 -90 111 -228 94 -460 -12 -165 -10
-180 45 -352 57 -178 45 -291 -39 -362 l-31 -26 52 -516 c29 -285 52 -541 52
-570 0 -32 -10 -78 -24 -115 -13 -34 -27 -87 -31 -118 -12 -108 -99 -239 -210
-316 l-29 -21 34 -21 c46 -28 176 -69 259 -81 143 -21 356 -10 601 31 l125 21
103 -20 c57 -11 106 -22 108 -25 6 -6 -131 -197 -185 -258 -86 -98 -273 -221
-426 -280 -44 -17 -186 -57 -315 -89 -661 -164 -1045 -302 -1420 -510 -341
-189 -841 -368 -1200 -430 -489 -83 -895 18 -1191 297 -53 50 -158 170 -174
201 -1 1 -34 -10 -72 -24 -69 -25 -72 -28 -92 -77 -47 -112 -159 -254 -255
-323 -33 -24 -36 -43 -21 -160 9 -71 -4 -143 -40 -217 -147 -312 -770 -595
-1124 -512 -87 21 -153 59 -206 119 -56 63 -58 65 -125 129 -55 51 -58 58
-260 519 -197 449 -206 467 -235 474 -123 27 -171 99 -220 330 -24 116 -32
134 -115 259 -131 196 -167 333 -120 459 41 109 142 191 365 297 116 54 136
68 235 160 59 56 141 126 181 156 41 30 75 56 77 58 1 1 -27 19 -63 41 -129
75 -248 210 -319 364 -43 93 -30 215 27 255 20 14 20 14 1 20 -66 22 -107 48
-170 108 -39 37 -78 67 -87 67 -41 0 -154 46 -219 89 -119 80 -251 229 -316
358 -17 32 -43 55 -124 108 -355 232 -555 456 -573 643 -4 39 -5 72 -3 72 2 0
42 -12 89 -26 115 -35 309 -43 461 -20 224 35 462 106 578 171 41 23 165 88
275 143 l200 101 40 72 c53 96 167 217 242 256 104 55 210 64 313 28 41 -15
45 -14 207 41 191 64 575 155 778 185 247 35 447 43 705 29z"/>
<path d="M3535 7480 c-307 -24 -722 -110 -1026 -213 l-185 -63 -45 20 c-69 32
-178 29 -251 -7 -74 -36 -179 -149 -238 -255 l-45 -80 -185 -91 c-102 -49
-241 -120 -310 -156 -133 -69 -256 -110 -495 -161 -160 -34 -387 -43 -495 -20
-41 9 -79 16 -83 16 -5 0 6 -27 24 -60 73 -138 244 -301 479 -459 l144 -97 51
-89 c67 -121 228 -285 328 -334 37 -19 69 -32 72 -29 3 3 -12 43 -34 89 -40
85 -71 187 -71 232 0 20 4 23 25 20 19 -4 28 -16 41 -57 35 -107 135 -285 202
-357 58 -63 146 -128 157 -117 3 2 0 20 -5 39 -37 127 -33 315 9 412 16 38 25
47 45 47 23 0 28 -9 55 -93 34 -105 49 -184 59 -305 l7 -83 37 48 c78 103 150
281 166 410 l7 58 65 17 c99 25 105 24 139 -25 34 -50 94 -189 112 -261 11
-45 13 -48 26 -30 47 62 104 210 127 330 l13 69 21 -46 c12 -25 27 -70 33 -99
l12 -54 23 29 24 30 -21 -75 c-11 -41 -39 -114 -61 -163 -34 -71 -45 -87 -60
-84 -15 4 -18 -1 -18 -28 0 -22 -11 -46 -33 -73 -17 -23 -34 -41 -37 -41 -3
-1 -24 39 -47 87 -45 92 -127 193 -184 226 -32 19 -32 19 -25 0 35 -88 72
-424 47 -424 -5 0 -18 15 -30 33 -11 18 -33 42 -48 53 -32 24 -108 64 -120 64
-4 0 -8 -51 -8 -113 0 -85 -4 -124 -19 -162 -10 -27 -22 -54 -26 -58 -4 -4
-33 13 -65 37 -105 82 -180 95 -205 37 -18 -44 -5 -98 48 -192 91 -163 234
-279 401 -325 49 -14 59 -20 50 -31 -6 -7 -22 -13 -34 -13 -13 0 -34 -12 -47
-28 -12 -15 -46 -43 -73 -61 -68 -46 -144 -110 -245 -207 -77 -74 -100 -89
-240 -158 -278 -136 -359 -230 -330 -384 12 -68 47 -139 138 -278 77 -120 89
-150 122 -305 34 -162 75 -218 167 -229 l46 -5 212 -480 c219 -498 215 -491
313 -580 12 -11 48 -48 80 -82 52 -54 67 -64 131 -83 62 -19 89 -22 189 -18
134 6 233 29 377 87 365 150 579 395 526 605 -6 25 -8 69 -4 103 6 58 6 58 67
99 75 50 152 143 207 250 l41 81 60 17 c33 9 86 30 119 46 32 17 62 30 66 30
5 0 32 -31 61 -69 225 -296 551 -451 946 -451 418 0 972 172 1547 481 92 49
207 107 256 128 290 126 696 252 1223 381 250 62 431 155 573 296 72 72 144
170 133 181 -13 13 -123 7 -261 -15 -287 -45 -529 -40 -706 17 -114 37 -171
71 -208 125 l-30 43 78 51 c125 81 188 172 198 281 2 31 14 76 26 101 12 25
23 71 25 105 3 48 -81 940 -104 1100 -5 39 -4 41 30 58 86 40 98 138 41 315
-55 173 -57 189 -45 357 21 296 -29 428 -184 482 -53 18 -208 23 -446 14 -95
-4 -118 -1 -250 32 -160 40 -334 67 -478 72 -90 4 -95 3 -118 -22 -13 -14 -24
-32 -24 -39 0 -8 -8 -14 -18 -14 -23 0 -62 -40 -62 -63 0 -9 -9 -26 -20 -37
-21 -21 -28 -84 -10 -95 20 -13 9 -43 -25 -66 -56 -38 -75 -89 -76 -200 l0
-94 -35 70 c-19 39 -53 101 -76 138 l-41 68 6 87 c6 110 34 186 93 251 26 29
42 55 38 62 -13 21 -170 88 -255 109 -107 27 -339 37 -461 21 l-87 -12 -83 42
c-250 126 -523 220 -758 263 -230 42 -647 64 -875 46z m656 -81 c433 -34 882
-191 1244 -434 352 -237 541 -503 571 -805 6 -59 4 -70 -9 -70 -10 0 -18 14
-22 43 -53 321 -317 648 -695 862 -260 148 -583 256 -910 306 -177 26 -531 36
-735 20 -791 -63 -1506 -305 -2215 -749 -204 -128 -308 -177 -466 -222 -109
-30 -291 -60 -369 -60 -64 0 -59 -18 29 -104 92 -91 217 -175 339 -228 50 -23
99 -47 108 -55 24 -20 218 -60 359 -74 364 -34 798 60 1194 258 142 71 242
134 390 247 192 146 348 227 537 278 124 34 305 32 407 -4 135 -48 234 -132
288 -246 38 -78 38 -171 2 -260 -25 -60 -26 -71 -21 -178 l6 -115 34 33 c100
97 175 336 159 507 -26 278 -206 526 -434 598 -102 32 -95 51 8 22 146 -40
225 -100 320 -241 66 -98 122 -213 141 -294 7 -27 12 -107 12 -179 0 -168 -28
-279 -114 -455 -57 -115 -69 -132 -158 -220 -146 -146 -263 -196 -482 -207
-126 -6 -143 0 -116 41 14 21 25 23 124 29 205 12 346 70 471 196 70 70 136
162 115 160 -4 0 -25 -23 -46 -50 -73 -95 -276 -221 -382 -236 l-48 -6 6 60
c4 33 17 90 30 126 26 70 99 204 129 237 25 27 22 40 -9 40 -62 0 -141 -80
-248 -250 -413 -662 -921 -1087 -1395 -1167 -270 -46 -515 71 -630 301 -80
159 -39 180 110 57 179 -147 357 -192 554 -140 98 27 230 82 330 139 280 160
590 490 786 835 135 236 251 349 389 375 79 15 108 5 142 -49 15 -25 31 -58
34 -73 5 -19 13 -28 26 -28 20 0 20 -1 -16 85 -30 70 -123 201 -183 256 -170
158 -379 191 -598 94 -30 -13 -111 -62 -181 -108 -419 -277 -816 -438 -1238
-503 -153 -23 -428 -23 -560 1 -345 61 -637 218 -898 482 l-67 69 123 -4 c282
-10 545 67 864 251 982 567 2060 870 2864 806z m-1982 -240 c27 -5 57 -19 66
-29 15 -17 15 -19 -4 -25 -11 -3 -29 -1 -40 4 -29 16 -116 13 -157 -4 -20 -8
-71 -48 -113 -89 -64 -63 -125 -105 -137 -94 -1 2 23 34 54 71 69 81 148 142
210 161 59 18 60 18 121 5z m3422 -79 c109 -10 225 -36 292 -65 l38 -16 -35
-41 c-48 -55 -76 -134 -76 -210 l0 -62 -30 29 c-39 37 -40 92 -4 181 14 36 24
67 21 70 -14 15 -165 35 -251 34 -119 -1 -131 0 -91 10 45 12 202 11 270 -1
33 -5 76 -12 95 -15 35 -5 35 -5 10 10 -48 28 -173 47 -335 52 -177 6 -224 15
-125 24 106 10 111 10 221 0z m-2580 -72 c58 -42 75 -63 99 -126 23 -61 27
-182 7 -221 -8 -16 -33 -32 -74 -47 -35 -13 -63 -21 -63 -19 0 3 6 16 14 28
16 26 30 97 19 97 -4 0 -17 -7 -27 -15 -28 -21 -51 -19 -82 8 -52 45 -27 111
42 109 36 -1 37 -1 18 19 -68 75 -179 58 -223 -34 -37 -76 -23 -162 35 -220
21 -21 22 -26 8 -31 -25 -10 -230 -7 -329 4 -150 18 -355 64 -355 81 0 23 556
308 711 364 119 43 144 43 200 3z m1184 -48 c39 -5 98 -15 133 -21 59 -11 62
-12 62 -41 0 -44 42 -78 97 -78 24 0 58 7 75 16 36 19 55 15 127 -27 l54 -31
-49 -27 c-56 -30 -94 -81 -94 -126 0 -101 151 -75 202 35 l22 48 27 -22 c48
-41 137 -146 194 -230 l57 -83 -26 -38 c-28 -40 -34 -93 -14 -113 15 -15 72
-16 99 -1 18 9 23 3 54 -63 18 -40 32 -74 31 -75 -1 -1 -24 4 -51 12 -26 8
-108 27 -181 41 -128 24 -135 25 -194 10 -155 -40 -297 -211 -308 -371 -8
-132 38 -250 196 -502 l90 -143 4 -77 c4 -73 1 -88 -53 -253 -97 -298 -137
-515 -146 -795 -6 -203 5 -336 42 -482 82 -321 262 -522 532 -595 102 -27 317
-29 445 -4 274 53 592 182 761 309 82 62 82 62 49 65 -24 2 -42 -4 -70 -26
-67 -53 -158 -101 -253 -133 -85 -28 -103 -31 -216 -30 -166 2 -262 15 -321
45 -122 62 -185 208 -153 357 7 30 61 162 120 294 113 249 198 448 245 573 15
39 31 72 35 72 4 0 16 -6 26 -14 18 -13 18 -16 -9 -92 -15 -44 -64 -155 -108
-249 -44 -93 -107 -226 -139 -295 -168 -362 -147 -557 67 -640 80 -31 286 -40
386 -16 112 26 245 100 351 194 49 43 51 44 60 24 14 -32 34 -34 117 -12 56
14 81 26 98 47 54 65 181 267 237 376 49 95 64 117 82 117 22 0 22 -1 6 -38
-8 -20 -24 -54 -34 -74 -23 -44 -25 -91 -5 -111 13 -12 11 -21 -10 -62 -32
-65 -32 -98 3 -114 l26 -12 -33 -34 c-29 -30 -32 -39 -28 -73 l6 -39 -61 -29
c-34 -16 -82 -47 -107 -69 -25 -22 -84 -73 -133 -113 -90 -76 -108 -109 -69
-131 16 -9 16 -11 -3 -25 -52 -39 -440 -223 -610 -290 -394 -154 -687 -221
-975 -220 -252 0 -452 57 -630 177 -99 67 -301 285 -273 294 6 2 36 19 68 38
l57 35 26 -33 c47 -59 169 -174 234 -220 129 -93 290 -161 453 -193 105 -20
313 -20 430 1 98 17 257 68 345 109 68 32 63 32 -175 6 -421 -46 -635 -12
-839 134 -140 100 -322 331 -337 429 -5 28 -23 73 -40 101 -31 49 -32 56 -33
156 -1 94 -4 110 -29 158 l-27 52 2 233 c3 250 -3 298 -49 392 -13 28 -38 64
-55 82 -29 30 -30 33 -23 95 20 186 65 416 135 683 53 206 166 591 204 695 44
121 60 224 59 380 0 169 -18 251 -81 377 -61 120 -161 236 -264 304 -38 26
-40 29 -18 29 14 0 57 -5 95 -10z m2155 -49 c0 -10 -7 -24 -15 -31 -8 -7 -15
-24 -15 -39 l1 -26 15 28 c9 17 23 27 37 27 18 0 19 2 7 10 -26 16 1 45 47 48
35 3 44 -1 67 -28 23 -28 26 -29 26 -11 0 14 6 21 19 21 49 0 184 -24 312 -56
l141 -34 251 2 c284 3 326 -4 384 -65 73 -77 90 -163 74 -387 -13 -178 -10
-199 50 -385 50 -158 40 -229 -35 -260 -55 -23 -99 -4 -184 81 -41 41 -78 74
-84 74 -19 0 -58 50 -58 76 0 27 -57 115 -94 146 -12 10 -59 29 -106 44 -47
14 -109 34 -139 45 -30 11 -60 18 -68 15 -16 -6 -60 30 -170 142 -106 107
-132 118 -296 126 -160 7 -242 21 -292 49 -33 19 -41 30 -47 62 -8 43 -2 93
13 111 6 8 2 13 -12 17 -15 4 -20 12 -17 29 3 19 8 23 36 20 l33 -2 -17 29
c-9 16 -14 36 -11 45 8 21 46 20 77 -1 23 -16 23 -16 15 3 -24 59 -13 94 31
94 17 0 24 -6 24 -19z m-194 -388 c8 -18 29 -40 45 -49 51 -26 175 -44 305
-44 89 0 135 -4 162 -15 20 -9 71 -50 113 -93 118 -121 155 -152 180 -152 13
0 60 -12 104 -27 l80 -27 -90 -18 c-199 -38 -473 -46 -625 -17 l-55 11 1 131
c0 73 3 138 5 146 5 18 -68 34 -79 17 -4 -6 -8 -66 -10 -133 -4 -128 -8 -138
-47 -109 -16 11 -19 26 -18 107 1 52 5 108 10 124 9 30 9 30 -51 52 -33 12
-62 20 -64 18 -3 -2 -9 -73 -14 -157 l-10 -153 86 -830 c48 -456 88 -848 90
-870 9 -120 119 -211 323 -267 65 -18 107 -21 253 -22 153 -1 192 2 310 26
260 53 394 112 507 223 79 79 95 117 75 183 -10 33 -113 1023 -112 1080 0 12
6 22 14 22 9 0 16 -16 20 -47 17 -133 106 -1047 106 -1085 -1 -178 -252 -348
-601 -407 -362 -61 -675 -14 -836 123 -80 70 -75 38 -163 912 -98 965 -100
989 -92 1196 7 159 8 168 32 193 22 24 25 25 28 8 2 -10 10 -33 18 -50z
m-2731 -123 c9 -28 -13 -134 -40 -196 -13 -30 -26 -54 -29 -54 -2 0 -12 22
-21 49 -9 27 -34 75 -56 106 -22 32 -39 59 -37 60 2 1 30 12 63 23 52 18 79
26 107 31 4 0 9 -8 13 -19z m-285 -264 c-18 -123 -20 -126 -58 -67 -18 28 -51
63 -72 78 -22 16 -39 31 -37 35 1 4 40 34 87 67 l85 59 3 -46 c2 -26 -2 -82
-8 -126z m3221 -87 c124 -33 289 -43 459 -30 155 12 266 29 365 55 63 16 83
12 109 -26 22 -31 21 -35 -16 -47 -120 -39 -298 -73 -373 -70 -28 1 -70 -2
-95 -6 l-44 -8 16 26 17 25 -87 6 c-48 4 -107 9 -132 11 l-45 5 25 -17 c13
-10 34 -27 45 -38 l20 -20 -34 -3 c-22 -2 -49 4 -74 18 -38 22 -78 23 -121 5
-18 -8 -18 -7 -1 19 10 14 28 29 42 32 32 9 26 13 -48 30 -72 17 -178 65 -202
92 -13 14 -3 12 42 -11 32 -16 92 -37 132 -48z m-3531 -32 c-6 -41 -21 -108
-34 -148 l-23 -74 -17 40 c-9 22 -38 66 -63 98 -26 33 -42 62 -37 67 14 13
178 99 182 95 2 -2 -1 -37 -8 -78z m2975 38 c33 -8 86 -14 118 -15 43 0 57 -4
57 -14 0 -8 5 -27 11 -43 l11 -28 12 30 c7 16 15 25 18 19 13 -20 12 -113 -1
-128 -8 -10 -11 -27 -7 -43 6 -27 6 -27 -9 -9 -8 11 -15 30 -15 42 0 20 -6 23
-57 28 -194 18 -214 18 -257 2 -54 -21 -118 -86 -131 -134 -7 -23 -18 -38 -29
-40 -16 -3 -18 0 -12 25 15 60 62 128 111 158 43 26 60 31 144 35 l96 5 -47
13 c-64 16 -141 15 -186 -3 -74 -31 -142 -121 -166 -217 -5 -24 -12 -28 -40
-28 -20 0 -40 8 -51 20 -15 17 -16 25 -6 67 32 125 113 235 193 260 49 16 174
15 243 -2z m-975 -51 c45 -38 63 -81 108 -254 73 -279 81 -427 30 -553 -10
-25 -15 -28 -41 -23 -51 10 -95 45 -162 129 -119 149 -203 352 -192 463 9 85
79 207 141 245 43 26 79 24 116 -7z m-2200 -53 c27 -52 1 -229 -56 -371 -37
-91 -119 -240 -133 -240 -20 0 -17 17 18 88 48 98 79 191 96 289 24 144 48
253 56 253 5 0 13 -9 19 -19z m812 -18 c21 -20 38 -43 38 -51 0 -21 -177 -322
-190 -322 -3 0 -5 51 -5 113 0 61 -3 124 -8 140 -10 37 12 36 56 -3 19 -16 37
-30 40 -30 9 0 29 140 24 166 -6 32 1 30 45 -13z m-876 -26 c-4 -23 -19 -70
-35 -103 -24 -49 -30 -56 -36 -39 -4 11 -19 46 -33 78 -14 31 -23 59 -21 60
14 11 124 55 127 52 3 -2 1 -24 -2 -48z m-182 -69 c-3 -24 -27 -108 -53 -187
l-47 -144 -23 64 c-12 35 -43 99 -68 142 -24 44 -42 82 -38 85 6 7 212 80 228
81 4 1 4 -18 1 -41z m-1394 -52 l85 -23 7 -46 c8 -59 34 -138 65 -199 72 -146
-154 68 -236 222 -17 32 -31 61 -31 64 0 10 21 7 110 -18z m892 -58 c7 -21
-18 -159 -42 -227 -11 -35 -35 -91 -53 -125 l-32 -61 -6 85 c-7 91 -18 147
-50 249 -10 35 -18 65 -17 67 4 3 136 21 170 23 14 0 28 -5 30 -11z m-376 -14
l32 -5 -21 -52 c-19 -45 -22 -72 -22 -210 0 -86 -3 -157 -7 -157 -12 0 -93 98
-126 152 -36 60 -99 208 -108 255 l-6 30 114 -4 c62 -2 127 -6 144 -9z m4419
-68 c12 -19 14 -30 6 -44 -39 -73 -438 -238 -603 -249 -74 -6 -78 -5 -86 17
-15 40 -2 69 45 101 124 86 442 197 565 198 50 1 60 -2 73 -23z m-2796 -66
c78 -119 81 -130 46 -177 -46 -59 -243 -254 -310 -305 -101 -77 -206 -144
-292 -187 -84 -42 -213 -94 -219 -88 -2 2 5 39 15 83 31 130 53 299 45 352 -7
44 -6 46 11 32 29 -24 134 -167 176 -238 l38 -65 21 47 c57 133 97 339 85 436
l-7 55 20 -19 c31 -28 115 -153 152 -225 38 -76 44 -74 90 43 41 105 60 187
60 269 0 37 4 67 8 67 4 0 32 -36 61 -80z m-905 -282 c41 -83 69 -163 83 -239
11 -60 -59 -140 -137 -156 -20 -3 -46 -20 -63 -40 -38 -43 -65 -43 -154 2
l-70 35 23 91 c15 56 24 120 24 165 0 41 3 74 6 74 3 0 18 -9 34 -20 37 -26
86 -105 111 -177 31 -92 31 -92 45 -38 25 103 14 355 -21 460 -17 50 77 -74
119 -157z m1801 25 c-33 -130 -119 -536 -137 -651 l-23 -143 -29 5 c-16 3 -42
6 -59 6 l-30 0 7 63 c20 179 85 442 151 613 32 82 40 95 73 112 51 27 55 26
47 -5z m-1645 -56 c0 -13 -14 -44 -32 -68 -30 -41 -32 -42 -41 -22 -8 18 -3
29 29 67 21 25 40 46 41 46 2 0 3 -11 3 -23z m1435 -31 c-52 -125 -123 -418
-149 -617 -8 -63 -20 -115 -26 -117 -21 -7 -227 -190 -258 -229 -22 -29 -70
-115 -77 -140 -1 -1 -19 4 -40 12 -22 8 -61 14 -86 15 -92 0 -149 -29 -317
-165 -51 -41 -123 -67 -130 -46 -2 7 -48 85 -102 174 -104 171 -122 191 -196
202 -37 5 -45 10 -49 33 -10 46 -30 77 -52 80 -11 2 -28 11 -37 21 -16 17 -13
18 57 24 222 19 516 164 776 382 86 73 302 288 356 355 l28 35 131 5 c72 3
143 7 158 8 27 2 27 2 13 -32z m2182 -12 c21 -32 20 -86 -1 -119 -10 -16 -67
-50 -149 -90 -294 -144 -528 -187 -697 -128 -59 21 -103 69 -98 107 3 19 19
22 178 43 208 26 251 37 435 110 132 53 275 101 302 102 7 1 20 -11 30 -25z
m142 -520 c-33 -35 -56 -46 -80 -39 -20 7 -20 8 9 38 43 46 52 69 52 129 0 29
3 85 7 123 l7 70 15 -148 14 -148 -24 -25z m45 -179 c4 -49 10 -100 13 -112 5
-22 2 -23 -47 -23 -70 0 -188 41 -282 97 -43 26 -78 49 -78 52 0 4 43 26 94
49 93 43 94 44 148 32 49 -11 58 -10 94 8 48 25 48 24 58 -103z m-4016 -67 c6
-7 12 -26 14 -43 l3 -30 18 33 c29 53 73 39 69 -22 l-3 -30 24 22 c22 21 25
21 37 7 11 -13 11 -21 2 -36 -10 -16 -9 -19 3 -19 24 0 69 -101 61 -136 -11
-41 -74 -97 -217 -190 -69 -46 -134 -95 -143 -109 -10 -15 -28 -68 -41 -118
-12 -51 -29 -105 -36 -122 -7 -16 -14 -39 -15 -50 -1 -11 -9 -24 -19 -30 -10
-5 -32 -26 -49 -45 -17 -19 -59 -64 -92 -100 -34 -36 -66 -74 -71 -85 -16 -31
-26 -162 -14 -170 18 -10 12 -55 -9 -82 -11 -14 -20 -36 -20 -49 0 -41 -48
-158 -75 -181 -31 -27 -90 -31 -123 -7 -35 24 -50 63 -83 211 -35 153 -46 179
-132 307 -88 132 -121 208 -122 281 0 122 59 181 312 307 155 77 166 85 280
191 65 61 144 130 177 154 54 40 60 42 72 26 12 -16 13 -16 14 10 0 39 42 79
78 75 19 -2 27 -8 26 -21 -2 -13 3 -16 18 -12 10 4 25 1 33 -5 12 -10 15 -9
15 3 0 9 -9 18 -19 22 -25 8 -44 31 -36 45 9 14 50 13 63 -2z m1778 -29 c76
-39 128 -90 153 -149 72 -168 44 -537 -46 -597 -20 -13 -25 -11 -65 25 -55 51
-103 131 -144 240 -37 101 -104 351 -104 393 0 34 16 78 37 101 26 29 100 24
169 -13z m2094 -73 c30 -9 83 -16 118 -16 34 0 62 -4 62 -9 0 -5 16 -30 35
-55 19 -26 35 -54 35 -64 0 -33 60 -140 95 -171 50 -43 121 -83 195 -108 45
-15 64 -27 62 -37 -5 -29 -92 -219 -124 -274 -43 -72 -176 -212 -252 -267
-170 -120 -354 -162 -527 -121 -121 28 -169 80 -169 184 0 118 26 189 195 542
62 129 128 277 146 328 38 103 26 97 129 68z m-3472 -222 c107 -173 129 -220
472 -998 308 -699 312 -710 308 -765 -15 -188 -249 -403 -586 -536 -308 -121
-578 -121 -694 2 -35 37 -459 994 -447 1008 6 6 12 6 18 0 13 -14 389 -868
412 -935 10 -30 27 -63 39 -72 35 -28 121 -55 200 -63 129 -12 358 40 569 129
182 77 369 233 432 361 38 77 44 155 16 198 -9 15 -17 31 -17 36 0 6 -140 327
-310 713 -294 666 -367 816 -447 915 l-34 43 -35 -45 c-19 -25 -34 -48 -34
-51 0 -3 15 -23 33 -45 19 -21 46 -63 61 -93 27 -53 27 -55 10 -81 l-17 -26
-39 73 c-22 40 -54 88 -71 105 l-32 33 -29 -23 -29 -23 38 -50 c21 -27 52 -79
70 -117 l32 -68 -41 -33 c-126 -103 -364 -226 -544 -282 l-42 -13 46 53 c25
29 59 63 75 75 16 12 29 31 29 42 0 11 7 33 15 49 8 16 22 60 30 97 9 37 18
78 20 90 9 38 53 80 129 122 94 52 209 138 242 182 22 29 25 42 22 86 l-5 52
31 -13 c23 -9 48 -42 104 -132z m5002 28 c0 -24 -64 -84 -117 -111 -70 -35
-203 -69 -344 -87 -272 -34 -517 -2 -607 80 -52 48 -36 57 57 30 255 -74 729
-31 949 86 47 24 62 25 62 2z m-4292 -77 c67 -31 164 -121 160 -148 -2 -11
-15 -29 -30 -40 l-27 -20 -40 36 c-119 108 -242 111 -348 10 -43 -40 -44 -43
-13 -23 128 79 216 77 326 -6 30 -24 33 -29 19 -37 -13 -7 -25 -2 -48 21 -80
75 -231 59 -317 -33 -14 -15 -42 -36 -63 -46 -32 -17 -36 -22 -27 -39 5 -10
10 -29 10 -42 -1 -22 -1 -22 -16 5 -8 15 -21 27 -28 27 -7 0 -23 23 -35 51
-23 53 -23 71 -1 44 21 -25 29 -17 19 17 -12 44 -13 42 24 60 17 9 64 43 102
77 130 114 222 138 333 86z m4155 -162 c36 -57 112 -122 174 -149 59 -27 229
-73 272 -75 18 -1 21 -3 7 -6 -29 -8 -214 27 -291 54 -110 40 -180 95 -209
164 -26 61 11 70 47 12z m-4850 -104 c-15 -29 -54 -79 -86 -111 l-59 -58 35 0
c19 0 40 -7 47 -15 11 -13 10 -14 -3 -10 -24 10 -76 -23 -98 -60 -18 -30 -58
-65 -74 -65 -8 0 2 35 20 73 8 15 12 27 10 27 -3 0 -50 -30 -106 -67 -99 -64
-101 -67 -76 -76 39 -13 33 -23 -20 -37 -27 -6 -57 -20 -68 -30 -30 -26 -236
-97 -337 -115 l-36 -7 8 37 c5 21 13 42 19 48 6 6 46 21 89 33 159 46 378 150
519 247 76 51 206 180 225 223 6 13 13 22 16 20 2 -3 -9 -28 -25 -57z m1109
-76 c29 -26 23 -60 -14 -83 -89 -54 -323 -100 -507 -100 -126 0 -141 5 -141
50 0 32 43 58 146 90 182 55 476 80 516 43z m4808 -28 c-9 -11 -31 -15 -79
-14 l-66 1 75 13 c41 6 77 13 79 14 2 0 -2 -6 -9 -14z m-197 -22 c-7 -2 -21
-2 -30 0 -10 3 -4 5 12 5 17 0 24 -2 18 -5z m-195 -10 c-26 -2 -71 -2 -100 0
-29 2 -8 3 47 3 55 0 79 -1 53 -3z m52 -184 c-48 -22 -90 -33 -380 -104 -102
-25 -244 -64 -317 -85 -148 -45 -183 -51 -78 -14 122 43 374 114 565 159 102
24 196 48 210 54 46 18 46 10 0 -10z m-4110 -67 c0 -52 -91 -142 -195 -193
-133 -66 -353 -109 -551 -109 -70 0 -78 2 -105 29 -22 23 -29 39 -29 69 l0 40
68 16 c37 9 141 27 232 40 184 27 272 52 440 125 104 46 116 49 128 34 6 -9
12 -32 12 -51z m-826 -539 c42 -71 82 -108 126 -118 51 -11 31 -35 -30 -35
-43 0 -65 27 -114 139 -63 142 -60 144 18 14z m426 -121 c0 -25 -101 -174
-155 -227 -54 -54 -100 -85 -109 -73 -1 1 -23 50 -49 108 l-46 105 27 3 c54 5
71 13 101 43 29 29 39 32 124 39 50 4 95 8 100 9 4 0 7 -2 7 -7z m-340 -692
c0 -40 -40 -98 -120 -173 -68 -64 -102 -87 -221 -146 -224 -112 -412 -163
-519 -140 -27 6 -58 18 -67 27 -16 16 -13 18 38 25 117 16 258 51 342 83 195
75 382 189 487 298 49 51 60 56 60 26z"/>
<path d="M3565 6586 c-106 -28 -165 -51 -165 -65 0 -13 -8 -14 75 4 293 62
538 -81 645 -375 16 -41 32 -75 36 -75 18 0 74 127 74 167 0 87 -97 232 -197
296 -120 77 -290 94 -468 48z"/>
<path d="M4902 6490 c-18 -11 -40 -36 -49 -55 -16 -33 -15 -36 2 -55 23 -25
51 -25 92 0 29 17 63 65 63 89 0 17 -31 41 -53 41 -12 0 -37 -9 -55 -20z"/>
<path d="M6827 6774 c-15 -8 -37 -12 -48 -9 -28 9 -69 -20 -68 -48 1 -17 2
-18 6 -5 2 10 16 21 30 25 20 5 31 1 45 -17 16 -20 21 -21 29 -9 5 7 9 17 9
20 0 12 50 28 67 22 10 -3 26 -15 35 -27 14 -17 18 -18 18 -5 0 49 -73 81
-123 53z"/>
<path d="M6300 6740 c-21 -21 -28 -80 -10 -80 6 0 10 7 10 15 0 28 38 55 78
55 35 1 36 2 18 15 -28 21 -72 19 -96 -5z"/>
<path d="M7594 6674 c22 -21 20 -61 -2 -73 -11 -6 -32 -7 -48 -2 -24 6 -32 3
-47 -16 -22 -27 -53 -30 -79 -6 -11 10 -18 12 -18 4 0 -6 9 -19 20 -28 26 -22
25 -38 -2 -57 -20 -14 -20 -16 -4 -16 10 0 30 13 44 28 37 39 71 56 107 53 36
-3 75 29 75 62 0 29 -27 67 -46 67 -14 0 -14 -2 0 -16z"/>
<path d="M7180 6561 c0 -36 -27 -55 -65 -45 -21 5 -25 3 -25 -15 0 -24 -45
-40 -62 -23 -8 8 -18 6 -34 -5 -19 -12 -27 -13 -39 -3 -8 7 -15 8 -15 2 0 -20
26 -29 86 -30 45 -1 65 3 75 14 7 8 28 22 48 30 19 8 39 20 43 27 11 17 10 65
-2 72 -6 4 -10 -6 -10 -24z"/>
<path d="M6964 6346 c-9 -24 4 -48 23 -44 12 2 18 12 18 28 0 29 -32 41 -41
16z"/>
<path d="M7664 6268 c14 -22 14 -26 0 -46 -8 -12 -24 -22 -35 -22 -11 0 -17
-4 -14 -10 3 -5 19 -10 35 -10 61 0 81 100 22 108 -23 3 -23 3 -8 -20z"/>
<path d="M6997 6274 c-12 -12 -8 -42 6 -47 21 -8 39 8 35 29 -3 19 -29 30 -41
18z"/>
<path d="M7240 6255 c0 -20 5 -25 24 -25 25 0 36 15 29 38 -3 6 -16 12 -29 12
-19 0 -24 -5 -24 -25z"/>
<path d="M7073 6244 c-8 -21 13 -42 28 -27 13 13 5 43 -11 43 -6 0 -13 -7 -17
-16z"/>
<path d="M7180 6190 c0 -13 7 -20 20 -20 13 0 20 7 20 20 0 13 -7 20 -20 20
-13 0 -20 -7 -20 -20z"/>
<path d="M7313 6203 c-21 -8 -15 -43 6 -43 11 0 23 5 27 11 8 14 -17 38 -33
32z"/>
<path d="M7416 6154 c-19 -19 -20 -25 -3 -48 19 -26 61 -18 65 12 7 44 -32 67
-62 36z"/>
<path d="M7440 6040 c0 -13 5 -20 13 -17 6 2 12 10 12 17 0 7 -6 15 -12 18 -8
2 -13 -5 -13 -18z"/>
<path d="M7477 5979 c-37 -21 -8 -77 33 -64 13 4 20 15 20 30 0 29 -28 47 -53
34z"/>
<path d="M7657 5984 c-12 -12 -8 -42 6 -47 21 -8 39 8 35 29 -3 19 -29 30 -41
18z"/>
<path d="M7571 5951 c-17 -11 -7 -41 13 -41 22 0 30 20 15 36 -9 8 -19 10 -28
5z"/>
<path d="M7634 5855 c-14 -37 26 -69 53 -42 22 22 8 57 -23 57 -14 0 -27 -7
-30 -15z"/>
<path d="M6614 6324 c-7 -46 0 -168 12 -211 6 -20 13 -23 60 -23 29 0 55 3 57
8 3 4 -1 39 -9 77 -8 42 -11 95 -7 133 l6 62 -56 0 -56 0 -7 -46z"/>
<path d="M3530 5104 c-116 -139 -343 -337 -535 -468 -96 -66 -291 -159 -402
-193 -51 -15 -93 -31 -93 -34 0 -4 22 -15 48 -23 63 -21 82 -43 187 -213 48
-79 89 -143 91 -143 1 0 29 23 61 51 156 138 292 184 428 144 15 -5 25 2 39
27 28 47 87 108 181 188 l82 70 7 72 c14 140 68 396 123 581 5 15 -3 17 -74
17 l-79 0 -64 -76z m100 -39 c-15 -40 -79 -364 -86 -440 -7 -66 -9 -71 -53
-109 -25 -22 -81 -75 -123 -118 l-78 -78 -73 0 c-116 0 -214 -36 -313 -116
-23 -18 -46 -34 -53 -36 -6 -2 -42 46 -80 106 l-69 110 142 70 c233 117 425
262 656 497 74 76 136 138 137 138 1 1 -2 -10 -7 -24z"/>
<path d="M2230 4320 c-27 -27 -26 -45 2 -26 29 21 67 20 90 -1 17 -15 18 -15
18 3 0 11 -5 25 -12 32 -19 19 -76 14 -98 -8z"/>
<path d="M1899 4141 c-13 -10 -30 -16 -37 -14 -22 8 -69 -17 -80 -43 -7 -14
-8 -33 -3 -46 7 -20 8 -19 14 10 8 42 49 60 82 38 22 -14 23 -14 29 9 8 32 42
51 62 34 17 -14 19 2 2 19 -17 17 -42 15 -69 -7z"/>
<path d="M1891 3829 c-1 -19 -27 -32 -43 -23 -5 3 -16 -3 -24 -15 -18 -24 -37
-27 -53 -7 -10 12 -16 12 -40 -2 -33 -18 -58 -11 -71 20 -9 23 -9 23 -9 -3 -1
-41 25 -56 102 -57 55 0 72 3 88 19 10 10 23 19 28 19 16 0 33 29 28 47 -4 15
-5 15 -6 2z"/>
<path d="M1904 3705 c-4 -9 -2 -21 4 -27 16 -16 47 -5 47 17 0 26 -42 34 -51
10z"/>
<path d="M1260 3691 c-14 -27 3 -68 33 -82 19 -9 31 -7 55 5 33 17 84 20 117
7 11 -4 29 -5 40 -3 18 5 18 6 -5 12 -22 6 -25 11 -22 46 2 34 1 36 -10 19
-18 -31 -30 -36 -70 -30 -20 3 -40 1 -43 -5 -3 -5 -15 -15 -25 -20 -26 -14
-64 22 -55 51 8 25 -1 25 -15 0z"/>
<path d="M1923 3624 c-3 -8 -1 -20 6 -27 14 -14 47 15 37 32 -10 16 -36 13
-43 -5z"/>
<path d="M1870 3570 c0 -15 5 -20 18 -18 9 2 17 10 17 18 0 8 -8 16 -17 18
-13 2 -18 -3 -18 -18z"/>
<path d="M1714 3515 c-8 -20 4 -35 27 -35 14 0 19 7 19 25 0 18 -5 25 -20 25
-11 0 -23 -7 -26 -15z"/>
<path d="M1802 3483 c2 -10 10 -18 18 -18 8 0 16 8 18 18 2 12 -3 17 -18 17
-15 0 -20 -5 -18 -17z"/>
<path d="M1705 3430 c-4 -7 -3 -16 3 -22 14 -14 45 -2 40 15 -6 16 -34 21 -43
7z"/>
<path d="M1392 3348 c-29 -29 1 -88 45 -88 11 0 28 9 38 20 17 19 17 19 -18
13 -29 -4 -37 -2 -46 15 -6 11 -8 28 -5 36 7 19 2 20 -14 4z"/>
<path d="M1626 3345 c-9 -9 -16 -20 -16 -25 0 -15 32 -41 48 -38 24 5 39 35
26 56 -15 23 -38 26 -58 7z"/>
<path d="M1670 3245 c0 -8 7 -15 15 -15 8 0 15 7 15 15 0 8 -7 15 -15 15 -8 0
-15 -7 -15 -15z"/>
<path d="M1664 3165 c-10 -25 4 -45 30 -45 13 0 26 7 30 15 9 25 -5 45 -30 45
-14 0 -27 -7 -30 -15z"/>
<path d="M1613 3104 c-8 -20 8 -36 26 -25 15 10 8 41 -9 41 -6 0 -13 -7 -17
-16z"/>
<path d="M1520 3094 c-11 -12 -10 -18 3 -32 16 -15 18 -15 34 0 13 14 14 20 3
32 -7 9 -16 16 -20 16 -4 0 -13 -7 -20 -16z"/>
<path d="M1581 3001 c-13 -24 9 -57 33 -48 23 9 31 34 16 52 -17 20 -37 19
-49 -4z"/>
<path d="M6030 4266 c-39 -102 -66 -161 -165 -366 -122 -252 -176 -394 -177
-468 -3 -102 42 -127 227 -127 111 1 138 4 186 23 124 49 275 173 365 298 43
60 115 203 113 227 0 7 -35 29 -78 49 -97 47 -173 119 -212 202 -16 34 -29 67
-29 75 0 8 -11 29 -26 48 -19 25 -32 33 -57 33 -18 0 -56 6 -86 14 -51 13 -53
13 -61 -8z m158 -141 c38 -112 114 -204 222 -271 33 -20 60 -41 60 -47 0 -5
-14 -36 -32 -70 -68 -127 -255 -291 -381 -333 -56 -19 -185 -25 -249 -11 -31
6 -38 12 -38 32 0 54 58 204 170 436 65 135 126 263 135 285 15 39 17 40 56
35 38 -6 41 -9 57 -56z"/>
<path d="M2158 3869 c-21 -11 -38 -22 -38 -25 0 -2 15 -28 34 -56 19 -28 43
-77 52 -109 20 -66 30 -71 83 -38 29 17 33 24 27 50 -12 63 -91 200 -114 199
-4 -1 -24 -10 -44 -21z"/>
<path d="M7280 4044 c-83 -20 -282 -44 -368 -44 -61 0 -73 -2 -64 -12 21 -21
261 -16 347 6 66 18 145 51 145 61 0 3 -1 5 -2 4 -2 -1 -28 -7 -58 -15z"/>
<path d="M3000 1812 c-95 -47 -193 -86 -299 -118 -8 -3 -11 -7 -8 -10 15 -16
178 30 272 76 87 43 187 111 160 109 -6 0 -62 -26 -125 -57z"/>
<path d="M2078 5693 c-40 -6 -35 -28 10 -42 20 -7 43 -15 50 -18 9 -3 7 6 -5
31 -9 20 -19 35 -22 35 -3 -1 -18 -4 -33 -6z"/>
<path d="M2005 5495 c-4 -11 -18 -44 -31 -74 -14 -30 -23 -55 -22 -56 8 -6 88
-45 94 -45 9 0 -5 102 -20 153 -11 35 -14 39 -21 22z"/>
<path d="M1646 5418 c4 -44 12 -104 19 -132 l13 -51 1 57 c1 74 -19 208 -31
208 -6 0 -7 -32 -2 -82z"/>
<path d="M1683 5181 c2 -40 5 -45 31 -53 42 -11 44 -2 9 35 -17 17 -33 39 -36
47 -4 8 -5 -5 -4 -29z"/>
<path d="M1821 5154 c-12 -26 -21 -49 -21 -53 0 -7 41 -34 45 -29 8 10 13 118
6 123 -6 3 -19 -15 -30 -41z"/>
</g>
</svg>
